<svg width="212" height="102" viewBox="0 0 212 102" fill="none" xmlns="http://www.w3.org/2000/svg">
<path d="M68.0725 4.55917C68.6433 4.69506 69.5228 4.61054 69.8466 4.88565C69.9243 5.39248 69.7689 6.43477 69.6195 6.93062L69.4989 6.96947L69.5428 7.02045C69.4412 6.77705 69.4003 6.58167 69.3515 6.37707C69.3246 6.26882 69.0766 6.24258 69.0547 5.90993L69.3724 5.63158L69.484 5.33268C69.3963 5.05444 69.4621 5.1555 69.1872 4.96184C68.8176 4.92429 68.965 4.89851 68.6283 5.06261C68.2937 5.60802 68.9859 6.65415 68.3076 7.02431C67.9739 6.62779 68.0815 5.14897 68.0725 4.55917Z" fill="black" fill-opacity="0.945098"></path>
<path d="M67.8354 3.85861C69.1602 3.20625 69.6483 3.54531 70.7779 4.37615C70.9094 4.81284 71.1056 5.39978 71.1942 5.83476C70.8107 7.27389 69.9182 8.34231 68.203 8.02723C67.7737 7.94824 67.0385 7.20636 66.9967 6.77813L67.1352 6.74071C67.2617 6.51564 67.1979 5.61135 67.2228 5.20363C67.2746 5.59243 67.2846 6.45883 67.3005 6.8869C71.1903 10.4725 72.2372 2.31629 67.942 4.04928L67.8354 3.85861Z" fill="black" fill-opacity="0.713725"></path>
<path d="M67.8354 3.85861L67.942 4.04928C67.5366 4.39886 67.3404 4.66469 67.2228 5.20363C67.1979 5.61136 67.2617 6.51564 67.1352 6.74072L66.9967 6.77813C66.8602 5.64726 66.7337 4.48017 67.8354 3.85861Z" fill="black" fill-opacity="0.858824"></path>
<path d="M1.16082 3H64.5782L64.9846 3.4339C64.9368 4.65883 65.0444 6.55745 65.0454 7.88109L65.0384 19.2761L65.0175 55.4074C65.0175 58.943 65.0295 62.5592 65.0045 66.1004C65.0026 66.4891 64.7774 67.2294 64.9109 67.5114C60.7981 67.7888 56.4142 67.5839 52.2884 67.6982C50.8849 67.737 48.3696 67.5337 47.0683 67.7453L46.9859 67.8431C43.1523 67.9493 38.9432 67.8675 35.0866 67.8673L13.0421 67.8663C9.26773 67.8662 4.63759 67.7495 0.920166 67.9197C1.04647 66.512 0.971363 63.7035 0.972159 62.1867L0.971168 51.1369L0.966785 16.1896L0.962699 8.63964C0.961404 7.3571 0.861498 4.07035 1.16082 3Z" fill="black"></path>
<path d="M30.4837 31.387C30.945 31.466 31.4068 31.4524 31.8732 31.453C35.9828 31.458 40.1015 31.4415 44.1969 31.8341C48.4866 32.262 52.7536 32.8896 56.985 33.7147C58.6893 34.0347 60.5958 34.6209 62.2593 34.8324C62.0381 44.5431 62.2792 54.7911 62.2105 64.5557L32.5568 64.5541L4.20892 64.535C4.29369 54.8328 4.30744 44.6119 4.19678 34.9188C7.55949 34.189 10.864 33.4057 14.2658 32.8483C15.9847 32.5666 17.7028 32.5155 19.4003 32.171C19.7034 32.1095 20.0067 32.0589 20.3117 32.0082C20.6434 32.2121 20.4818 32.3496 20.7424 32.806C21.4495 34.0173 22.6063 34.9005 23.9611 35.2635C26.6322 35.9757 29.7911 34.0068 30.4837 31.387Z" fill="#B0D46A"></path>
<path d="M46.3547 37.4516C50.2493 37.5782 54.9559 37.4581 58.9094 37.4583L58.9144 42.2202C56.5865 42.1893 54.2596 42.1923 51.9318 42.229L51.9327 46.3156L58.7092 46.3256L58.7122 51.0133L51.9318 51.0163L51.9347 53.9066L51.9327 55.9743C54.3303 56.0072 56.7997 55.9762 59.2032 55.9733L59.2082 60.574L46.3492 60.5788L46.3547 37.4516Z" fill="black"></path>
<path d="M31.1122 37.4615L43.8806 37.4618C43.8622 39.0288 43.8627 40.596 43.882 42.1629C41.4768 42.2828 38.939 42.1501 36.4919 42.2365L36.4955 46.1508C38.7534 46.1665 41.0112 46.1664 43.269 46.1505L43.2664 50.8184L40.8244 50.8129L36.4981 50.8198L36.4975 60.5734L31.113 60.576L31.1122 37.4615Z" fill="black"></path>
<path d="M8.50388 37.4509C10.1987 37.5063 12.1689 37.4578 13.8859 37.4588L13.8935 55.9814L20.6218 55.9742C20.5488 57.3062 20.5997 59.077 20.6001 60.4414L20.5059 60.547C19.4343 60.6428 17.5298 60.5844 16.4104 60.5841L8.4975 60.579L8.50388 37.4509Z" fill="black"></path>
<path d="M22.5917 37.4538C24.3902 37.4924 26.3195 37.4578 28.1288 37.4592L28.1245 52.7624C28.1247 55.0871 28.2423 58.3531 28.104 60.5746L22.5746 60.5747C22.5568 52.9131 22.4998 45.1063 22.5917 37.4538Z" fill="black"></path>
<path d="M4.20288 6.60115L62.2434 6.60104L62.2424 21.6511C62.2414 24.5867 62.2952 27.7435 62.2005 30.66C59.9972 30.0198 57.3545 29.6526 55.0785 29.2547C46.5664 27.7664 38.5208 27.4067 29.9128 27.5377C29.492 26.6914 29.1657 26.4378 28.472 25.8288C27.8153 25.3038 27.0546 24.9244 26.2402 24.7159C24.9465 24.3806 21.2143 24.3105 20.8472 25.9362C21.3099 27.1947 23.2796 25.9563 24.3962 25.8596L24.4735 25.8534C25.225 25.7894 26.0949 26.1564 26.7571 26.5094C31.5621 29.0718 28.1219 35.7117 23.2664 33.3465C22.3943 32.9217 21.9576 31.8475 21.7074 30.9537C22.1012 29.6848 22.7088 28.6392 24.1238 28.4125C25.571 28.1806 27.1687 29.51 26.086 30.9145C25.7281 31.3788 25.1246 31.7441 24.601 31.3147C24.6066 30.6805 25.4429 30.4757 25.1669 29.6471C24.0662 28.6784 22.9537 30.1712 23.1075 31.2332C23.287 32.4717 24.5073 33.0385 25.6663 32.8472C28.255 32.3448 28.5774 28.7976 26.409 27.4235C23.8106 25.7771 23.1207 27.7074 21.1139 27.9824C17.5096 28.4764 13.9761 28.7067 10.3731 29.411C8.30002 29.8163 6.2884 30.1736 4.20358 30.6349L4.20288 6.60115Z" fill="#88B7EF"></path>
<path d="M20.8247 9.41101C21.5316 9.23728 23.1561 9.63941 23.7309 10.1447C24.4259 10.7557 25.0017 11.8948 24.9867 12.8512C24.9434 15.6055 25.5133 19.0665 24.2453 21.5626C23.7187 22.4319 22.3034 22.6296 21.4459 22.7032C17.0491 22.7549 16.7853 20.5528 16.8467 16.7132C16.8778 14.7654 16.5333 12.4045 17.6621 10.716C18.3298 9.71721 19.733 9.57726 20.8247 9.41101Z" fill="black"></path>
<path d="M20.7071 11.7602C20.8149 11.7596 20.9229 11.7616 21.0307 11.7662C21.6243 11.7971 21.9431 12.2973 21.9504 12.8118C21.9752 14.5476 22.5881 19.2459 21.2289 20.3667C20.7204 20.3691 20.4702 20.0468 20.1398 19.711C19.8213 18.332 19.9288 14.4818 20.0277 12.9197C20.0597 12.4152 20.3017 12.0585 20.7071 11.7602Z" fill="#88B7EF"></path>
<path d="M7.70932 9.69531C14.8957 9.6454 15.9802 9.32189 15.6613 17.1132C15.5912 18.8276 15.961 20.1273 14.7161 21.5605C13.0207 22.8404 9.91935 22.4407 7.70294 22.4265L7.70932 9.69531Z" fill="black"></path>
<path d="M10.7105 11.9401C11.171 12.0114 12.2167 12.1541 12.3772 12.4911C12.7442 13.2617 12.746 19.3525 12.3673 19.7358C11.9023 19.8831 11.3139 20.1005 10.8405 19.9592C10.5926 19.4949 10.7041 12.9474 10.7105 11.9401Z" fill="#88B7EF"></path>
<path d="M26.4155 9.7003L29.464 9.68234C29.7667 11.0989 31.209 15.1016 31.73 16.6184C31.4922 14.3628 31.6613 11.9082 31.4422 9.70089L34.3045 9.69582L34.3038 22.4219L31.2177 22.4251C30.6618 21.0897 30.3363 19.4899 29.7644 18.0332C29.3588 18.298 29.2516 18.3857 29.1117 18.8875C29.1351 19.8826 29.1876 21.4641 29.3133 22.4192L26.3618 22.4238C26.4452 21.4372 26.3816 19.3843 26.381 18.3341C26.3628 15.4561 26.3743 12.578 26.4155 9.7003Z" fill="black"></path>
<path d="M28.8881 15.209C29.1679 15.8532 29.549 17.2935 29.7644 18.0332C29.3588 18.298 29.2516 18.3857 29.1117 18.8875C28.9341 17.5682 28.8822 16.5358 28.8881 15.209Z" fill="#77A8DC"></path>
<path d="M38.1983 9.70897L41.4221 9.68204C42.2707 13.8131 43.3251 18.2831 44.249 22.4233L41.1714 22.428C41.0835 21.6388 40.9411 20.9355 40.7884 20.1559L40.6598 19.9795C40.1099 19.8862 39.0029 19.9298 38.4008 19.9371C38.3624 20.7689 38.3123 21.6002 38.2505 22.4307L35.1511 22.4156C35.6079 19.0221 37.0394 13.4701 37.7836 9.9167C37.8085 9.79788 38.0426 9.75969 38.1983 9.70897Z" fill="black"></path>
<path d="M39.6907 12.2303C39.9429 12.5552 40.3636 16.8553 40.3887 17.5237C40.2207 17.7059 40.1877 17.6519 39.8816 17.6769C39.5192 17.6834 39.3963 17.6968 39.0418 17.6047C38.8719 17.027 39.5376 13.036 39.6907 12.2303Z" fill="#88B7EF"></path>
<path d="M52.4767 9.68124C54.7507 9.7219 57.1244 9.69238 59.4055 9.69692L59.4075 12.2693L55.6124 12.2744L55.6183 14.6144C56.8216 14.6116 58.0259 14.5972 59.2292 14.5715C59.2362 15.4118 59.2332 16.2726 59.2879 17.1095C58.0627 17.0885 56.8376 17.0939 55.6124 17.1257L55.6114 18.6212C55.6084 18.9475 55.5655 19.5424 55.7399 19.7831C56.4979 19.8992 58.8188 19.8373 59.7033 19.8314L59.7143 22.4234L52.4557 22.4262C52.5115 18.1916 52.4149 13.9323 52.4767 9.68124Z" fill="black"></path>
<path d="M43.6489 9.71399C46.1899 9.65337 48.8781 9.69115 51.4298 9.6883L51.4337 12.2707L49.0952 12.2706L49.1074 20.1344L49.1185 22.4279L46.0789 22.4239L46.0874 12.2817L43.6416 12.2633C43.6698 11.4299 43.6526 10.5515 43.6489 9.71399Z" fill="black"></path>
<path d="M64.5781 3H65.3521C65.5165 3.25061 65.5623 3.44022 65.5643 3.7387C65.5852 6.18737 65.5782 8.65745 65.5772 11.1059L65.5752 25.4112L65.5683 67.8828L52.7804 67.8575C51.5343 67.8567 47.9922 67.9627 46.9858 67.8431L47.0682 67.7453C48.3695 67.5337 50.8848 67.737 52.2883 67.6982C56.4142 67.5839 60.798 67.7888 64.9109 67.5114C64.7774 67.2294 65.0025 66.4891 65.0045 66.1004C65.0294 62.5592 65.0174 58.943 65.0174 55.4074L65.0383 19.2761L65.0453 7.88109C65.0443 6.55745 64.9367 4.65883 64.9846 3.4339L64.5781 3Z" fill="black" fill-opacity="0.972549"></path>
<path d="M34.8118 84.1574C35.114 83.8993 35.2445 83.749 35.6351 83.6804C35.9968 83.7598 35.9041 83.6849 36.0572 83.9219C36.0265 84.1586 35.8198 84.4487 35.6284 84.5842C35.5095 84.4107 35.0265 84.2474 34.8118 84.1574Z" fill="black" fill-opacity="0.921569"></path>
<path d="M123.275 32.2202C123.979 32.1429 124.225 32.2064 124.899 32.4458C127.829 33.4868 125.432 37.6916 124.585 39.659C126.206 37.6572 129.175 34.5899 131.885 34.1561C132.893 33.9946 133.407 34.3272 134.137 34.8972C134.795 36.7535 134.341 39.4979 134.055 41.4317C133.937 42.2222 133.323 43.9053 133.545 44.5951C134 44.7158 133.78 44.2149 134.417 44.1413L134.591 44.286C135.163 45.8235 131.994 47.4227 130.817 47.433C129.648 47.4433 129.448 45.5545 129.584 44.7489C129.98 42.4195 130.772 40.1984 131.164 37.8748C131.216 37.5656 131.334 36.389 131.058 36.1005C130.499 35.7821 128.401 37.7531 128.151 37.993C126.289 39.7757 124.697 41.7486 123.19 43.8255C122.423 44.883 121.934 46.1083 121.05 47.0753C117.627 46.2512 118.842 44.7057 119.946 42.4005C120.476 41.323 124.294 34.5151 123.293 33.8124C119.025 33.7232 108.75 47.6233 107.794 47.7664C107.234 47.8504 106.557 47.4748 106.131 47.1448C105.901 46.9669 105.684 46.7449 105.661 46.4437C105.625 45.958 106.017 45.4257 106.207 44.9907C107.46 42.1145 109.846 37.3014 111.933 35.0419C112.665 35.0012 113.891 34.9098 114.266 35.6637C114.394 36.5938 112.728 38.7095 112.195 39.9814C113.472 38.6636 114.95 37.4312 116.336 36.2268C118.511 34.3356 120.468 32.9817 123.275 32.2202Z" fill="black"></path>
<path d="M173.03 24.0471C174.447 23.9347 174.668 23.9159 175.028 25.3523C174.672 26.985 174.329 27.5902 172.776 28.2478C169.782 28.892 170.879 24.9143 173.03 24.0471Z" fill="black" fill-opacity="0.988235"></path>
<path d="M182.065 26.1667C183.529 26.6028 186.147 28.762 184.86 30.5222C184.615 30.856 183.944 31.2892 183.51 31.2629C182.832 30.7172 183.736 29.4623 183.037 29.0365C182.893 29.0528 182.756 29.0835 182.621 29.1322C180.189 30.004 178.147 33.1297 177.11 35.3594C176.433 36.8177 175.715 39.2354 176.313 40.7873C176.455 41.1536 176.673 41.4687 177.044 41.6268C179.625 42.7221 186.263 35.2282 187.82 33.2543C188.9 31.8846 189.707 30.3488 190.863 29.0247C192.071 27.6413 193.559 26.0121 195.285 25.298C196.555 24.7729 197.77 24.8359 199.015 25.3632C200.081 27.2172 199.425 29.2552 198.271 30.8882C198.635 30.915 199.366 30.9619 199.694 31.1174C201.508 31.9807 198.312 37.3079 199.776 37.796C202.139 37.3537 206.657 30.8747 208.405 29.3649C208.744 29.2978 208.7 29.354 209.082 29.5322V30.5559C208.606 30.8433 206.741 33.2994 206.219 33.9183C205.526 34.7455 204.797 35.5419 204.034 36.3055C202.911 37.4282 200.348 39.9744 198.796 39.9538C196.485 39.9232 196.969 35.2341 197.061 33.9037C196.825 34.1708 196.338 34.7098 196.07 34.9246C193.727 36.7995 189.555 42.2331 186.796 43.1324C186.316 42.9309 186.156 42.8222 185.719 42.5273C185.248 40.8411 185.51 39.5124 185.821 37.8262C183.432 40.3522 177.136 46.814 173.526 41.457C173.136 40.878 173.015 40.1168 172.919 39.4228C171.154 40.532 166.713 45.0047 164.433 42.3081C164.107 41.9229 164.041 40.9784 163.988 40.4644C161.765 42.7691 158.669 45.7652 155.244 44.6285C154.957 44.2636 154.656 43.8953 154.392 43.4882C152.914 41.2078 159.392 35.2771 158.778 34.1193C158.19 33.9741 154.952 34.5711 154.596 35.0114C151.651 38.6539 143.19 49.1284 137.683 45.5494C136.935 45.0719 136.408 44.3151 136.22 43.4474C135.608 40.4887 136.658 37.2686 138.299 34.8319C139.881 32.4834 142.254 29.5959 145.16 28.9768C146.305 29.3107 149.884 30.9444 149.225 32.4825C147.766 35.8855 142.871 37.324 139.992 39.0992C139.099 40.6501 138.899 41.9643 139.258 43.6947C139.644 44.0059 140.067 44.2821 140.477 44.5613C145.006 43.9504 149.929 38.2065 152.788 34.9058C153.467 34.319 151.981 33.6736 152.066 32.9135C152.313 30.355 156.607 25.3124 159.374 27.05C160.493 27.7527 156.534 32.1519 155.99 32.6927C158.279 32.784 160.016 32.0106 161.687 33.9896C161.793 34.5968 161.826 34.7876 161.764 35.3985C161.559 37.4252 157.37 41.3486 157.193 42.8031C157.392 43.2994 158.187 43.0753 158.572 42.8932C161.088 41.7053 163.596 39.1564 165.323 36.9785C166.292 35.7569 167.204 33.5046 167.876 32.1017C168.65 30.2737 170.033 30.16 171.623 30.9418C171.891 34.55 169.892 35.1541 168.082 37.8307C167.674 38.4331 166.194 40.4862 166.768 41.1474C168.116 41.4955 171.784 38.7935 172.696 37.8328C173.313 37.0321 173.419 35.9331 173.809 35.0316C175.245 31.7125 178.36 27.1527 182.065 26.1667ZM188.016 40.6715C189.08 39.4359 195.87 33.6987 196.022 32.7219C195.703 32.3308 195.653 32.4337 195.658 32.0492C196.195 31.1471 198.413 27.9052 198.205 27.0107C197.962 26.8729 198.064 26.8915 197.795 26.8883C194.261 28.942 188.652 35.9389 187.443 39.9876C187.346 40.3132 187.292 40.5046 187.446 40.7763C187.717 40.7934 187.761 40.7695 188.016 40.6715ZM142.894 35.4821C143.725 34.9939 147.354 33.0403 146.949 32.0237C146.571 31.7591 146.091 31.8553 145.638 31.9015C144.168 32.4294 142.334 34.7502 141.603 36.0588C141.95 35.9187 142.609 35.6786 142.894 35.4821Z" fill="black" fill-opacity="0.988235"></path>
<path d="M90.7361 31.538C93.2516 29.2524 95.4657 26.5799 97.8662 24.1687C100.259 21.765 114.11 8.30993 116.783 8.48186C117.011 8.4966 117.152 8.55856 117.303 8.73119C117.725 9.21409 117.702 10.4707 117.637 11.0685C117.573 11.6602 117.391 12.1895 117.115 12.7137C115.413 15.9376 113.236 18.9595 111.388 22.1063C110.33 23.9252 109.312 25.7675 108.337 27.6318C107.915 28.4325 107.421 29.5086 106.982 30.2499C108.649 30.1655 108.938 30.0427 109.881 31.468C108.69 31.5019 107.637 31.5831 106.451 31.6843C104.819 34.6635 102.796 40.7839 101.662 44.0758C102.421 43.1299 103.201 42.1082 104.042 41.246C104.257 41.3359 104.74 41.4992 104.859 41.6727C104.512 42.5015 103.719 43.8014 103.263 44.6538C102.434 46.2347 101.635 47.8318 100.868 49.4442C100.017 51.2216 99.1641 53.0127 98.4327 54.8432C98.0596 55.7774 97.8081 56.7756 97.3924 57.689C97.2187 58.0705 96.9588 58.5088 96.5338 58.6433C96.2775 58.7249 96.0012 58.6691 95.7641 58.5556C95.291 58.3295 95.0102 57.8643 94.8488 57.3832C93.1629 52.3647 99.9999 38.4165 102.421 33.3873C102.595 33.0255 102.991 32.262 102.856 31.8775C101.42 31.6644 94.0254 32.9412 92.2164 33.2542C91.2186 34.2141 89.8245 35.9945 88.896 37.1024C87.0019 39.3203 85.1459 41.5705 83.3288 43.8518C81.3002 46.4292 79.445 49.3249 76.8546 51.3901C76.3862 51.7635 74.5568 52.2089 74.1239 51.4891C74.1467 50.8893 75.2873 49.9725 75.7197 49.5316C76.492 48.735 77.2409 47.9159 77.9652 47.0755C81.6488 42.8183 85.2277 38.0469 88.9293 33.6638C85.3745 34.3154 80.8127 36.1159 77.4654 37.5936C75.8167 38.3213 73.4746 40.1077 71.5901 40.6219C70.719 40.8597 69.9594 40.2278 69.2302 39.7669V38.7689C72.5608 35.3436 85.7467 32.308 90.7361 31.538ZM94.5677 31.0721C95.8106 30.9739 103.511 30.6004 103.959 30.0627C104.2 29.7738 112.618 14.3907 112.663 14.2098L112.551 14.0522C111.328 14.8117 108.913 17.0212 107.773 18.0429C104.116 21.3228 100.558 24.712 97.1043 28.2059C96.2955 29.0341 95.2064 30.0176 94.5076 30.8864C94.5236 31.0392 94.4881 30.9988 94.5677 31.0721Z" fill="black" fill-opacity="0.988235"></path>
</svg>