<?xml version="1.0" encoding="UTF-8"?><svg id="Layer_2" xmlns="http://www.w3.org/2000/svg" viewBox="0 0 948 356"><defs><style>.cls-1{fill:#494949;}</style></defs><g id="Layer_1-2"><g><path class="cls-1" d="m.7,2.7c.3,1.6,18.3,81.5,39.8,177.8l39.1,175,22,.3,22,.2,38.8-175.7C183.7,83.6,201.4,3.5,201.7,2.2l.5-2.2h-45.7l-26.5,129.9c-14.6,71.5-26.8,129.7-27.1,129.3-.4-.4-12.9-57.9-27.9-127.7C60.1,61.6,47.6,3.5,47.3,2.2l-.5-2.2H0l.7,2.7Z"/><path class="cls-1" d="m273,.4c0,.3-16.9,79.9-37.5,177.1-20.6,97.1-37.5,177-37.5,177.6,0,.5,9.3.9,23.3.9h23.3l6.8-35.8c3.8-19.6,7.6-39.5,8.5-44.2l1.7-8.5,36.1-.3c28.3-.2,36.2,0,36.5,1,.3.7,4,20.8,8.3,44.6l7.9,43.2h23.3c12.8,0,23.3-.3,23.3-.8.1-.4-16.9-80.5-37.7-177.9L321.5,0h-24.2c-13.4,0-24.3.2-24.3.4Zm39.5,150c8,42.7,14.5,78.3,14.5,79.1,0,1.3-4.1,1.5-29,1.5-22.5,0-29-.3-29.1-1.3,0-1.8,28.5-157.6,28.8-157.3.2.2,6.9,35.3,14.8,78Z"/><path class="cls-1" d="m411,178v178h141l-.2-17.8-.3-17.7-45.2-.3-45.3-.2V0h-50v178Z"/><path class="cls-1" d="m565,178v178h49V0h-49v178Z"/><path class="cls-1" d="m644,18v18l48.8.2,48.8.3-52.2,142-52.3,142v17.7l-.1,17.8h158v-36l-54.9-.2-54.8-.3,54.8-148.5,54.8-148.5.1-11.3V0h-151v18Z"/><path class="cls-1" d="m809,178v178h139v-36h-89v-130h72v-35h-72V37h88V0h-138v178Z"/></g></g></svg>